<svg height="2160" viewBox="0 0 3840 2160" width="3840" xmlns="http://www.w3.org/2000/svg"><path d="m614 481.07c-1.68 9.26-3.37 18.52-4.21 26.1a208.57 208.57 0 0 1 -5 26.94c-2.53 10.94-4.21 19.36-6.73 25.25-1.69 6.73-3.37 16-5.9 26.94s-4.21 21-5.89 30.3-3.37 19.36-5.89 30.31-5 20.2-6.74 27.77c-1.68 6.74-4.21 18.52-8.41 34.52s-7.58 32-11.79 47.14q-5.05 24-12.63 53c-5.05 20.2-9.26 36.2-12.62 48.82-14.31 51.35-26.1 96-36.2 135.53s-19.45 78.31-26.99 116.19c-4.21 21-8.41 41.25-12.62 62.3s-8.42 42.93-12.63 66.5a139.79 139.79 0 0 1 -5 24.41c-2.53 8.42-4.21 15.15-5.05 19.36q-7.58 18.94-20.2 27.78c-3.37 2.52-6.74 4.21-9.26 4.21-3.37 0-5.9-2.53-7.58-6.74a7.58 7.58 0 0 0 -5.05-5 87.67 87.67 0 0 0 -10.1-2.52 97.78 97.78 0 0 0 -13.51-2.58c0-4.21-.84-11.78-1.68-21-.85-5.89-1.69-14.31-2.53-23.57-.84-10.1-2.52-19.36-3.37-26.94-4.2-35.35-7.57-73.23-10.1-112.8-2.52-40.4-2.52-77.44-1.68-110.27.84-29.46.84-47.14-.84-53s-5.05-3.37-10.1 7.57c-2.53 5.05-9.26 21.89-19.37 49.67s-21 58.92-32 92.59c-7.58 21-13.47 36.2-18.52 45.46s-10.1 16-16 18.52c-2.52.84-4.2 1.68-5.05 1.68-1.68-.84-3.36-1.68-4.21-4.21a8.59 8.59 0 0 0 -5.05-4.2 12 12 0 0 0 -5.89-1.69 6.55 6.55 0 0 1 -6.73-1.68c-1.69-1.69-3.37-4.21-5-8.42a187.89 187.89 0 0 1 -3.37-23.57q-1.26-16.41-2.53-40.41c-.84-16.83-1.68-35.35-1.68-54.71 0-14.31 0-30.31.84-46.3.84-37.88 3.37-71.55 5.89-101 .85-10.1 1.69-21 4.21-33.67 1.69-11.79 3.37-23.57 5.9-35.36a488.57 488.57 0 0 1 14.31-58.08c4.21-16 7.57-23.57 10.1-21 .84.85 2.52 10.95 3.36 30.31 1.69 19.36 2.53 40.4 3.37 64 .84 12.63.84 25.26.84 37.88v34.52c-.84 42.93-.84 70.71-.84 83.33.84 12.63.84 19.36 1.69 20.21s5.05-6.74 11.78-21.89 14.31-32.83 23.57-53.88c4.21-11.78 9.26-23.57 14.31-35.35s9.26-23.57 13.47-34.51c7.58-19.36 14.31-33.67 18.52-42.93 5-8.42 9.26-12.63 11.78-12.63.85 0 1.69.84 4.21 1.68a22.16 22.16 0 0 1 5.05 4.21c2.53.84 4.21 2.53 6.74 3.37a23.32 23.32 0 0 0 7.57.84c2.53-.84 4.21-.84 5.9 0s3.36 1.68 4.2 3.37c.85.84 1.69 5 2.53 11.78s2.53 15.16 3.37 26.1q2.52 29 5.05 70.71c.84 27.78 1.68 54.71 1.68 79.13.84 42.93 1.68 67.34 3.37 72.39 1.68 5.89 5.89-5 11.78-32 20.21-90.07 40.41-168.36 61.45-234q30.31-98.49 68.19-184.35c14.31-31.15 27.78-63.14 40.4-96.81 13.47-32.83 23.57-59.77 29.47-80.81a13.66 13.66 0 0 1 2.52-5.05c1.68-1.69 2.53-2.53 3.37-2.53s1.68 1.69 1.68 5.05-.84 8.42-1.68 15.16c-.92 5.73-2.61 13.3-4.25 22.56zm-158.3 553.05c-4.2 14.32-7.57 27.78-10.94 38.73q-5.06 17.67-10.1 35.35c-2.53 10.94-5.05 19.36-5.89 24.41-.84 4.21-1.69 10.1-2.53 18.52a156.14 156.14 0 0 1 5.05-15.15q2.54-6.32 7.58-22.73c4.21-10.94 7.57-22.73 10.94-33.67 11.79-39.56 20.2-69 26.1-88.39 4.21-16.83 6.73-26.93 6.73-30.3 0-.84 0-.84-.84-.84 0-.84 0-.84-.84-.84h-.84c-2.53 0-4.21 3.36-6.74 9.26s-5.05 16-8.42 29.46c-2.52 9.26-5.05 21.07-9.26 36.19zm38.73-198.66c-12.63 31.15-25.26 64.82-37 99.33-7.58 22.73-14.31 44.62-20.2 64.82s-8.42 35.36-9.26 44.62v5c0 2.52 0 4.21.84 4.21s1.68-1.69 2.52-4.21c3.37-7.58 9.26-24.41 16.84-50.51 5.89-17.68 12.62-39.56 21-65.66 8.42-25.25 16.84-48.82 24.41-70.71 4.21-11.78 8.42-21.88 11.79-31.14 4.21-9.26 6.73-16.84 9.26-22.73s5-10.95 7.58-16c2.52-5.89 3.36-9.26 4.2-10.94a3.07 3.07 0 0 0 .85-2.53c.84-.84.84-1.68 0-1.68l-.85.84c-.84.84-2.52.84-3.36 1.69-5.9 5.14-16 23.62-28.62 55.6z"/><path d="m746.12 549.26c-.84 10.94-1.68 21-2.52 31.14a191.69 191.69 0 0 1 -6.74 42.09c-2.52 11-10.1 33.67-21.88 68.19-6.74 21-13.47 42.09-20.21 64-7.57 21.89-11.78 37.88-14.31 47.14-2.52 10.1-6.73 22.73-10.94 37.88-4.21 14.31-7.58 27.78-10.94 38.73s-5.9 21-8.42 30.3-3.37 14.31-2.53 16.83 1.69 3.37 2.53 2.53 3.37-4.21 6.73-10.1c7.58-10.94 19.36-26.94 37-49.67 16.84-22.72 30.31-40.4 41.25-52.19 19.36-21.88 39.56-40.4 61.45-54.71s39.56-21.89 52.19-21.89 22.73 5 28.62 16 9.26 26.09 9.26 46.29v1.69a220.8 220.8 0 0 1 -2.49 34.49c-1.68 10.94-7.57 33.67-18.51 69-4.21 15.15-10.11 33.67-16.84 54.71s-14.31 46.3-23.57 75.76c-10.1 31.15-17.68 58.08-23.57 80-5.89 22.73-10.94 47.14-16.84 74.08q-10.1 46.71-12.62 68.18c-.84 14.31-.84 25.26 1.68 32.83 1.68 5.89 3.37 10.1 5.05 11.79 1.69.84 6.74 2.52 16 4.2a63.53 63.53 0 0 1 13.46 4.21c4.21.85 5.9 1.69 6.74 2.53.84 1.68 0 5.89-3.37 11.78a75.07 75.07 0 0 1 -12.63 16c-7.57 7.57-15.15 11.78-21.88 13.47-1.69.84-3.37.84-5.89.84a42.71 42.71 0 0 1 -16.84-3.37 54.08 54.08 0 0 1 -21-12.62c-5.9-5.9-11-11.79-14.31-19.37-5.9-10.94-8.42-28.62-7.58-52.19q1.26-36.61 10.1-83.33c5.89-26.1 12.63-54.72 21-87.55 8.42-32 15.16-54.71 19.37-67.34 1.68-4.21 4.2-11.79 8.41-24.41 3.37-12.63 6.74-26.1 11-38.72 6.73-23.57 14.31-48 23.57-72.4 9.26-25.25 19.36-53 32-84.18 6.74-16 9.26-26.09 8.42-28.62s-5.89-.84-16.83 5.05c-22.8 10.94-49.69 36.19-81.69 74.91-32 39.57-62.29 84.18-90.91 135.53-5 8.42-10.1 17.68-16 28.62a247.35 247.35 0 0 1 -15.15 25.25c-9.26 16-15.16 31.15-18.52 47.14s-5.9 42.09-7.58 76.61c-1.68 22.72-3.37 42.93-5 61.45-2.53 19.36-4.21 32.83-6.73 40.4q-2.53 8.84-17.68-5a91.17 91.17 0 0 1 -25.26-33.67c-3.36-7.58-5.89-14.31-6.73-19.36s-.84-13.47-.84-26.1v-5.89c0-9.26.84-21 1.68-33.67s1.69-23.57 2.53-32a260.43 260.43 0 0 1 4.21-28.62c2.52-11.78 5-24.41 7.57-38.72 5-26.1 11-53 17.68-82.5q8.73-42.97 17.6-70.71c4.21-13.46 8.42-30.3 14.31-50.5s10.1-37.88 14.31-53c16-58.09 32.83-109.44 50.5-155.73 17.68-45.46 34.52-82.5 51.35-111.12 5.9-9.26 10.1-16.83 13.47-21s5.89-6.74 8.42-6.74c1.68 0 3.37 1.69 4.21 5.05s.84 8.42 1.68 16zm-137.21 354.39c.84 0 1.69-3.37 4.21-9.26 3.37-10.1 10.1-34.51 21-74.08q7.58-26.52 20.2-63.13c8.42-24.41 16.83-45.46 24.41-64a3.09 3.09 0 0 0 .84-2.52c0-.84 0-.84-.84-1.69 0-.84-.84-.84-2.53-.84-3.36 0-9.26 11-18.51 32.83-8.42 22.73-16.84 47.14-25.26 74.08q-10.1 32.82-17.68 63.13c-4.2 19.36-6.73 32.83-6.73 41.25v.84c.05 2.55.05 3.39.89 3.39zm209.61 47.14-17.68 60.61c-8.42 27.78-16 53-21.89 74.91-5.05 17.68-7.57 28.63-7.57 33.68 0 1.68 0 2.52.84 2.52.84 1.69 1.68 2.53 2.52 2.53 2.53 0 5-6.74 8.42-19.36 4.21-17.68 13.47-49.67 27.78-94.28 8.42-26.1 16-48.83 21.89-69s10.1-33.67 12.62-41.25c3.37-8.41 5.89-15.15 6.74-20.2a20.93 20.93 0 0 0 .84-6.73v-2.53l-1.69-1.69h-1.68c-.84 0-2.52 2.52-5 6.73s-5.89 12.63-10.94 25.25c-4.26 11.77-9.31 27.76-15.2 48.81z"/><path d="m1146.81 840.52v2.48c0 9.26-1.68 30.3-5 64-1.68 21-4.21 44.61-6.73 70.71s-5 47.14-6.74 63.13c-2.52 16-5 34.51-7.57 57.24-3.37 22.73-5.89 41.25-7.58 57.24-2.52 19.36-5.05 34.51-6.73 46.3-2.53 10.94-4.21 18.52-5.89 22.73-7.58 16-14.31 29.46-20.21 38.72-5 9.26-8.42 13.47-10.1 14.31h-.84c-.84 0-2.53-1.68-4.21-5.05a56.43 56.43 0 0 1 -5.89-14.31 164.22 164.22 0 0 1 -10.1-46.3c0-15.15 1.68-42.93 5-82.49 2.52-20.21 4.21-37.88 5-52.19.84-15.16.84-22.73 0-23.57s-2.53.84-5.89 5a117.5 117.5 0 0 0 -11.79 14.31c-12.63 16.83-27.78 33.67-43.77 50.5-16.84 16-29.46 26.94-38.72 32.83-16 10.11-32 14.31-46.3 13.47s-25.26-6.73-33.67-17.68c-5-7.57-8.42-15.15-9.26-24.41v-4.21c0-8.41 1.68-19.36 4.21-33.67 5-22.73 15.15-47.14 29.46-71.55s30.3-44.61 48-58.92a190.8 190.8 0 0 1 52.19-31.15c19.36-7.58 35.36-10.94 49.67-10.1q12.61 1.26 15.15 5c1.68 2.52 0 5-5.89 9.26-11 7.58-26.94 21.89-46.3 42.93-20.21 21-34.52 37-43.78 49.67-10.94 16.83-20.2 32-26.93 45.45s-9.26 21-6.74 22.73 8.42-2.53 17.68-11.79c10.1-9.25 24.41-23.57 42.93-44.61 4.21-5.89 9.26-11.78 15.15-18.52 5.9-7.58 10.95-14.31 16.84-21.89 10.94-14.31 20.2-26.93 28.62-39.56s12.63-19.36 12.63-21.89c0-.84.84-2.52 1.68-4.2a18.2 18.2 0 0 1 3.37-4.21q1.26-1.27 10.1-15.16c5-8.41 10.1-17.67 16-28.62 11.79-20.2 20.2-34.51 26.1-42.08 5-7.58 9.26-11.79 12.62-11.79h1.69c1.73.96 2.54 4.33 2.54 11.91zm-205.39 163.3c-10.1 14.31-17.68 26.1-21.89 36.2-5.89 11.78-9.26 24.41-11.78 38.72a102.31 102.31 0 0 0 -.84 15.15c0 6.73.84 11.79 2.52 16 1.68 2.53 2.53 4.21 3.37 4.21s.84-.84.84-1.68c.84-2.53 1.68-10.1 4.21-24.41a113.67 113.67 0 0 1 5-24.41q2.52-12.63 5.05-17.68c4.21-9.26 10.1-19.36 17.68-32a200.62 200.62 0 0 1 18.52-26.09c3.36-4.21 5.89-6.74 6.73-9.26v-1.69a1.81 1.81 0 0 0 -1.68-1.68c-.84 0-.84 0-1.69.84s-2.52.84-3.36 1.69c-4.16 3.36-11.74 11.78-22.68 26.09zm169.2-47.14c-2.53 11.79-4.21 25.25-6.74 41.25 0 .84 0 5.89-.84 16.83a250.1 250.1 0 0 1 -5 33.68c-2.53 14.31-4.21 27.77-6.73 39.56-.85 5.89-1.69 10.94-1.69 14.31a4.93 4.93 0 0 0 1.69 4.21c2.52 0 5-5 8.41-15.15q3.8-16.42 10.1-50.51c4.21-24.41 7.58-48 8.42-69.87v-14.31c0-11.78-.84-17.68-2.52-18.52h-1.72c-.86.84-1.7 6.74-3.38 18.52z"/><path d="m1458.28 386c-.85 9.26-5.06 22.73-11.79 41.25a233.63 233.63 0 0 0 -10.1 28.62c-2.53 9.26-5.05 16-5.89 18.52s-1.69 6.73-3.37 11.78c-1.68 5.9-3.37 10.95-5.89 15.16-1.69 4.21-4.21 10.1-6.74 17.67s-5 14.31-6.73 20.21-4.21 14.31-8.42 25.25-7.58 21.89-11.78 31.15c-7.58 17.67-13.47 33.67-17.68 46.29s-5.05 20.21-3.37 21.89c.84.84 4.21 0 11.79-1.68q11.36-3.79 25.25-7.58c21.89-6.73 42.09-10.94 61.45-12.63 18.52-1.68 30.3-.84 35.35 3.37 2.53 2.53 4.21 4.21 4.21 5v.84l-10.1 10.11c-7.57 6.73-20.2 15.15-37 25.25-17.67 9.26-32.83 16.83-46.29 21.88-12.63 5.06-26.94 10.95-42.93 18.52s-24.42 12.63-26.1 15.16a16.06 16.06 0 0 0 -3.37 6.73c-.84 2.53-2.52 5.89-3.36 10.1a233 233 0 0 1 -5.9 22.73c-3.36 10.94-6.73 22.73-10.94 34.51-.84 5-3.37 13.47-6.73 26.1s-6.74 26.09-10.11 41.25c-5.89 22.72-10.94 44.61-16.83 66.5s-9.26 35.35-10.1 39.56c-2.53 8.42-5 17.68-8.42 28.62a207.82 207.82 0 0 1 -7.58 26.1c-7.57 22.72-14.31 49.66-20.2 80-6.73 30.3-11.78 58.92-16 85.86a376.39 376.39 0 0 0 -5 40.4 240.55 240.55 0 0 0 -2.53 32c0 16.84 3.37 27.78 10.1 32 5.89 5 16 4.21 30.31-1.69q16.41-7.57 17.67-2.52c.85 4.21-2.52 11.78-11.78 22.73a82 82 0 0 1 -34.51 26.09c-8.42 3.37-16 5-23.57 5a29.79 29.79 0 0 1 -11.79-2.52c-4.21-1.69-10.1-5.89-16-11.79s-10.1-13.47-13.47-21c-2.53-5.89-5-11.79-5.89-17.68s-.85-15.15-.85-28.62c0-16 .85-36.2 3.37-61.45 2.53-26.1 5.05-46.3 8.42-61.45 2.52-14.31 7.58-37.88 15.15-69s14.31-54.71 19.36-71.55c2.53-9.26 6.74-22.73 11.79-41.24s10.1-38.73 16-60.61c8.42-32 16-62.29 23.57-91.76s10.94-44.61 11.79-47.14c.84-4.21 0-6.73-2.53-6.73-2.52-.84-8.42.84-16.84 4.21 0 0-10.1 2.52-29.46 7.57-19.36 4.21-32.83 5.05-39.56 2.53-8.42-3.37-8.42-10.94.84-22.73a130.9 130.9 0 0 1 32.8-27.85c5.89-3.36 13.47-6.73 21.89-10.94s16-6.74 21.88-9.26l17.68-7.58c5.89-2.52 9.26-5 10.94-7.57 2.53-1.69 5.05-6.74 8.42-14.31a268.06 268.06 0 0 0 11.79-32.83c3.36-10.95 7.57-23.57 12.62-36.2a305.45 305.45 0 0 1 11.79-32c3.36-7.57 7.57-16.83 12.62-28.62s9.26-21.88 12.63-30.3a509.92 509.92 0 0 1 38.72-80 399.79 399.79 0 0 1 49.67-66.5 36.66 36.66 0 0 1 5.89-5.05 13.64 13.64 0 0 0 5-2.53h1.68c4.21.88 5.9 5.94 5.06 14.4zm-245.8 711.31c0 1.68 0 2.52.84 2.52s.84-.84 1.68-3.36c2.53-7.58 7.58-24.41 15.15-52.19 1.69-5.9 4.21-16 8.42-30.31 3.37-14.31 7.58-29.46 11.79-46.3 6.73-25.25 13.46-50.5 20.2-76.6 5.89-25.25 10.94-42.09 13.47-49.66q6.32-21.47 10.1-35.36c2.52-8.42 4.21-13.47 4.21-15.15 0-.84 0-.84-.84-.84h-.85c-1.68.84-5.89 11.78-13.46 32.83-6.74 21.88-14.32 48-22.73 77.44-11 36.2-20.21 72.39-29.47 109.43s-15.15 63.14-17.67 77.45a57.49 57.49 0 0 0 -.84 10.05zm138-505.07c-2.53 8.42-3.37 14.31-3.37 17.68 0 2.52 0 3.36.84 3.36s1.69-1.68 4.21-5.05a91.1 91.1 0 0 1 6.74-12.62c4.2-9.26 10.1-21.89 16-37.88s8.42-25.26 8.42-28.62c0-.85 0-2.53-.84-3.37 0-.84 0-.84-.85-.84s-3.36 2.52-5.89 6.73a155.47 155.47 0 0 0 -8.42 16.84 327.81 327.81 0 0 0 -16.79 43.72z"/><path d="m1747 641c-2.53 11-6.74 24.41-10.94 38.72-4.21 11.79-8.42 26.1-13.47 42.09-5 16.84-9.26 31.15-12.63 42.09a225.31 225.31 0 0 1 -11.78 34.52c-3.37 7.57-6.74 14.31-11 19.36q-11.35 13.89-15.15 15.15c-3.37.84-7.58-.84-11.78-5.05-9.26-9.26-16-18.52-18.52-28.62-2.53-9.26-2.53-22.73 0-38.72.84-7.58 1.68-11.79 1.68-12.63-.84-.84-1.68-.84-4.21 1.68-3.37 2.53-9.26 9.26-16.84 20.21s-15.15 21-21 30.3c-2.53 2.52-5.89 7.58-10.94 14.31-4.21 5.89-9.26 11.78-13.47 17.68a580.61 580.61 0 0 0 -53 73.23 718.17 718.17 0 0 0 -46.3 88.39 506.3 506.3 0 0 0 -24.41 60.61c-5.9 17.68-10.1 32.83-11.79 45.45q-1.26 15.15 0 22.73a26.08 26.08 0 0 0 7.58 15.15 19.78 19.78 0 0 0 7.57 5c2.53.85 6.74 0 12.63-.84 17.68-3.36 39.56-13.47 67.34-30.3s52.19-35.36 73.24-56.4c5.89-5.89 11.78-11.79 18.52-19.36 5.89-7.58 12.62-15.15 18.52-22.73 10.94-14.31 20.2-26.94 26.93-39.56 7.58-12.63 10.11-19.36 8.42-21.89-.84-.84-3.37 0-8.42 1.68-5.89 1.69-11.78 3.37-18.52 5.9-5.89 2.52-13.46 5.89-21 8.41s-12.63 4.21-16.84 5-8.41 1.69-13.46 2.53c-5.06 1.68-9.26 2.53-11.79 3.37a58.7 58.7 0 0 1 -19.36 3.36c-5 0-7.58-1.68-7.58-4.2s7.58-10.11 22.73-22.73c15.15-11.79 32.83-24.41 52.19-37 10.1-6.74 20.21-13.47 30.31-19.36s19.36-11 27.78-15.15c14.31-7.58 23.57-11.79 29.46-13.47s13.47-2.53 22.73-2.53h21.88a72 72 0 0 1 2.53 10.95 37.37 37.37 0 0 1 1.68 10.94c0 10.94-2.52 26.94-7.57 47.14a508.76 508.76 0 0 1 -26.94 83.33c-2.53 5.9-6.74 16-11.79 29.47-5.05 12.62-10.1 25.25-14.31 37.88q-6.31 17.67-12.62 37.88c-5 12.62-8.42 22.73-11 29.46-2.52 5.89-5 15.15-9.26 26.94-3.36 11.78-6.73 22.72-9.26 32.83-2.52 9.26-5.89 20.2-8.41 32-2.53 11-5 19.37-6.74 25.26-3.37 11.78-9.26 26.09-17.68 43.77s-15.15 27.78-19.36 32c-1.68 2.52-3.36 3.36-4.21 3.36h-.84a50.53 50.53 0 0 1 -5-5.89c-10.1-16.83-14.31-37.88-12.63-64 .85-26.1 8.42-60.61 22.73-105.23 3.37-11.78 6.74-21.88 9.26-31.14s3.37-13.47 2.53-14.31-4.21 1.68-10.95 5.89c-7.57 4.21-15.15 10.1-24.41 16-20.2 14.32-37.88 25.26-53.87 32.83a242.11 242.11 0 0 1 -41.25 18.52c-10.94 3.37-25.25 5-41.25 4.21s-28.62-3.37-37.88-7.57c-21-11-35.35-28.62-42.93-53.88a137.56 137.56 0 0 1 -5-37.88c0-16 2.53-32 6.74-49.66 10.94-42.09 30.3-87.55 56.4-137.21s54.71-93.44 85.86-132.16c23.57-29.47 42.09-48.83 54.71-58.93s32-20.2 56.4-29.46c7.58-3.37 14.31-5.89 20.21-8.42s10.1-5.05 10.94-5.89 2.52-3.37 5.89-8.42c3.37-4.21 6.74-10.1 10.1-16a284.21 284.21 0 0 1 28.62-40.41c12.63-15.15 21.89-24.41 26.94-27.78a13.66 13.66 0 0 0 5.05-2.52c1.69-.84 3.37-1.69 4.21-1.69 2.53 0 3.37 1.69 4.21 5.05s.84 9.26 0 17.68a260.91 260.91 0 0 1 -5.16 28.68zm-262.64 271.9c-16 29.46-28.62 53.87-36.19 73.23-2.53 7.58-5.9 16-10.11 26.94-4.2 10.1-7.57 20.2-9.25 31.15 0 2.52 0 3.36.84 3.36s2.52-1.68 4.21-5q5-8.83 17.67-40.4c9.26-25.26 21-50.51 33.67-75.76a557.17 557.17 0 0 1 40.41-70.71c5.89-9.26 10.94-16.84 13.47-21.89 2.52-4.21 3.37-5.89 3.37-6.73v-.85a23 23 0 0 0 -3.37 4.21c-2.53 1.69-5 5.05-8.42 10.11-14.3 19.32-29.45 42.89-46.29 72.35zm191.93 112c-8.42 14.31-16 26.09-21.89 35.35-10.94 15.15-17.67 25.25-20.2 31.15-.84.84-.84 2.52-.84 3.36s1.68 0 5.89-3.36a79.36 79.36 0 0 0 8.42-10.11 123.1 123.1 0 0 0 14.31-20.2c9.26-12.62 16.83-23.57 22.73-31.14s8.41-9.26 8.41-4.21a38.65 38.65 0 0 1 -.84 8.41c-.84 4.21 0 6.74.84 7.58 3.37 1.68 4.21 6.74 1.69 15.15-1.69 8.42-7.58 31.15-18.52 69-6.74 24.41-11.79 43.77-14.31 56.4s-3.37 19.36-1.68 19.36a68.68 68.68 0 0 1 3.36-9.26c2.53-5.89 4.21-13.47 6.74-21.89 15.15-49.66 27.78-92.59 37-128 9.26-32.83 13.47-50.5 13.47-53.87-.84-.84-1.68 0-3.36.84-2.53 1.68-4.21 4.21-5.9 6.73-4.21 5.9-6.73 7.58-6.73 5.06-.84-2.53.84-10.11 5-24.42 2.53-8.41 4.21-14.31 5-18.52s.84-5.89 0-5.89-2.52 2.53-5.89 8.42c-2.53 5.89-6.74 14.31-12.63 26.09q-7.43 16.48-20.06 37.94z"/><path d="m2056.79 863.24c0 5.9-1.69 15.16-5.89 29.47-4.21 16-11.79 33.67-21.05 53a287.71 287.71 0 0 1 -29.46 48.82c-21.89 29.46-44.62 53-69 69a205.15 205.15 0 0 1 -77.44 33.67c-5.05.84-9.26 5-11.79 11.78-3.36 6.74-7.57 19.36-11.78 37.88-3.37 13.47-5.89 26.1-6.74 38.72s.85 19.37 3.37 21a2.57 2.57 0 0 0 3.37 0 7.26 7.26 0 0 0 5.05-2.53 43.88 43.88 0 0 1 9.26-5.89c5-2.52 10.1-5.89 15.15-8.42q16.41-7.57 32.83-22.72c10.94-9.26 24.41-24.42 42.09-43.78 8.42-9.26 16-16.83 21.89-22.73a72.76 72.76 0 0 1 19.36-13.46 95.42 95.42 0 0 0 17.67-10.1q8.85-6.32 15.16-10.11c4.2-3.36 8.41-5.89 10.94-6.73s4.21-.84 5 0c1.68 2.53 0 11.79-5 28.62a219.9 219.9 0 0 1 -16 42.09 145.72 145.72 0 0 1 -15.15 24.41c-6.73 8.42-16.83 19.36-29.46 33.67-19.36 21-37 36.2-52.19 45.46-14.31 10.1-32 17.68-51.35 21.89-13.47 4.2-22.73 5.89-26.94 5.89a86.26 86.26 0 0 1 -21-3.37 76.67 76.67 0 0 1 -22.73-12.63c-7.57-5.89-13.47-12.62-16.83-19.36-4.21-8.42-6.74-19.36-6.74-33.67a55.6 55.6 0 0 1 .84-11.78c.85-19.36 5.9-42.09 13.47-68.19a284.5 284.5 0 0 1 17.68-45.45 421.68 421.68 0 0 1 28.62-50.51c4.21-6.74 10.94-16 18.52-28.62s15.15-24.41 21.89-34.51a381.08 381.08 0 0 1 55.55-70.71c21-21.89 41.25-37.88 59.77-47.14a180.69 180.69 0 0 1 23.57-10.11 51 51 0 0 1 18.52-3.36h.84a31.09 31.09 0 0 1 17.68 5q7.57 5.05 12.63 15.15c4.13 7.74 5.82 14.47 5.82 20.36zm-216.34 165.83c.84 0 3.37-1.68 5.89-4.2 5.05-4.21 10.1-10.95 15.15-18.52 3.37-5.05 8.42-11.79 15.16-21.05 5.89-9.26 12.62-17.68 18.52-25.25 10.94-14.31 17.67-24.41 20.2-29.46.84-1.69 1.68-3.37 1.68-4.21 0-1.69-.84-2.53-3.37-2.53-1.68 0-5.89 4.21-12.62 11.79-6.74 8.41-14.31 17.67-21.89 28.62-10.1 13.47-19.36 26.93-27.78 39.56s-12.62 21-12.62 23.57a1.81 1.81 0 0 0 1.68 1.68zm156.55-159.93c-5 5.89-10.94 11.78-16.83 18.51-5.9 5.9-12.63 14.31-19.37 23.57-7.57 9.26-12.62 17.68-16.83 24.42-4.21 7.57-10.1 16.83-16.84 28.62-7.57 11.78-13.47 21.88-19.36 31.14s-10.1 17.68-14.31 25.26-5.89 10.94-5.89 11.78c0 2.53.84 3.37 2.53 3.37a3.09 3.09 0 0 0 2.52-.84c4.21-.85 9.26-4.21 15.15-8.42 8.42-7.58 19.36-17.68 32.83-32s22.73-25.25 28.62-33.67c11-15.15 21-32.83 32-53s16.84-33.67 18.52-41.25v-10.96c-.84-2.53-1.68-3.37-4.21-4.21h-.84c-.84.84-1.69.84-2.53 1.68a10.23 10.23 0 0 0 -4.21 4.21c-1.67 1.65-5.04 5.89-10.95 11.79z"/><path d="m2408.66 842.2a51.25 51.25 0 0 1 -.85 10.94q-1.26 22.73-17.67 70.71c-5.9 17.68-13.47 37.88-22.73 61.45-8.42 23.57-18.52 51.35-31.15 83.34-10.1 25.25-19.36 50.5-28.62 74.92s-16 40.4-18.52 49.66c-3.37 8.42-6.73 16.84-9.26 25.25-3.36 7.58-5.89 13.47-6.73 16a34.65 34.65 0 0 1 -13.47 16q-10.1 6.32-17.68 5c-4.21 0-9.26-3.36-14.31-10.1-4.21-6.73-6.73-12.62-6.73-18.52q0-13.89 17.68-63.13c11.78-33.67 30.3-80 54.71-138.89 14.31-34.52 26.94-65.66 36.2-92.6q15.15-39.15 15.15-45.46c0-1.68 0-3.36-.84-4.21s-1.69-1.68-2.53-1.68-5.89 3.37-13.47 10.94-16.83 16-27.77 26.1c-27.78 27.78-54.72 59.77-80.82 96.8a846.37 846.37 0 0 0 -69 112.8c-3.37 6.74-7.58 14.31-11.79 21.89s-7.57 13.47-10.1 17.68c-5.89 9.26-14.31 26.09-26.09 50.5-10.95 24.41-20.21 45.46-26.94 63.14-5.89 16-10.1 26.09-12.63 28.62a7.63 7.63 0 0 1 -5.89 2.52 13.43 13.43 0 0 1 -6.73-2.52c-2.53-.85-5-2.53-9.26-4.21-4.21-.84-7.58-2.53-11-3.37-5-.84-8.41-2.52-10.1-4.21-.84-.84-1.68-3.37-1.68-7.57a48.33 48.33 0 0 1 .84-10.1c.84-4.21 2.53-9.26 3.37-13.47 2.52-10.1 5.89-23.57 9.26-40.41 3.36-17.68 6.73-36.2 9.26-57.24.84-10.1 3.36-23.57 5.89-40.41 2.52-16 5.89-33.67 9.26-52.19 5.05-27.77 10.1-53.87 15.15-80 5.89-26.09 10.1-44.61 12.63-53.87q5-20.21 10.1-27.78 3.78-8.83 7.58-5.05t5.05 27.78c.84 16 1.68 34.51.84 53.87 0 10.11 0 20.21-.84 30.31s-1.69 19.36-2.53 27.78c-2.52 19.36-4.21 33.67-4.21 42.93-.84 9.26 0 12.62 2.53 10.94.84 0 3.36-2.53 5.89-6.73a126.28 126.28 0 0 0 7.58-15.16c14.31-27.77 34.51-59.76 59.76-96q36.61-53 68.19-85.86a636.21 636.21 0 0 1 73.23-67.34q40.41-32.83 53-35.36h5.9c5.89 0 10.94 1.69 16.83 5.89 5.05 3.37 9.26 7.58 11.79 13.47a80.9 80.9 0 0 1 4.27 26.21zm-176.78 96.8.84.85c.84 0 3.37-1.69 5.9-4.21a80.59 80.59 0 0 0 10.94-9.26l13.44-13.47a178.41 178.41 0 0 1 25.25-25.26c10.1-9.25 18.52-16 24.41-21q15.15-13.89 20.2-17.68c1.69-.84 2.53-1.68 2.53-2.52s-.84-1.69-3.37-1.69-10.1 5-21.88 14.31-23.57 20.21-36.2 32l-22.73 22.73c-6.73 7.58-11.78 14.31-15.15 18.52-2.5 3.32-4.18 5.84-4.18 6.68zm54.72 170.88c-5.9 14.32-8.42 23.58-8.42 26.1 0 .84 0 .84.84.84s4.21-4.21 8.42-12.62c5-10.11 11.78-26.94 20.2-51.35 5.89-16.84 10.1-30.31 12.63-39.57.84-5.89 1.68-10.1 1.68-11.78v-1.69h-.84c-2.53 0-5.89 7.58-10.94 21.89q-8.85 24-10.1 30.31c-2.53 8.41-7.58 21.04-13.47 37.87z"/><path d="m2709.17 602.29c.85 1.68.85 4.21.85 7.58.84 2.52.84 5.89 1.68 9.26s2.53 5.89 3.37 8.41c2.52 4.21 3.36 16 4.21 33.68v8.41a232.84 232.84 0 0 1 -2.53 37c-4.21 21.05-8.42 45.46-14.31 72.39-5.89 26.1-10.94 50.51-16.84 72.4-2.52 14.31-5.89 28.62-9.26 43.77-3.36 16-5.89 27.78-6.73 35.36-1.68 7.57-3.37 18.51-5.89 32-2.53 12.63-5 25.26-7.58 36.2s-4.21 21-6.73 32-3.37 18.52-4.21 22.73c-1.68 14.31-5 31.14-10.94 52.19s-10.11 36.19-14.31 47.14c-2.53 5.89-5.9 12.62-8.42 20.2-3.37 7.58-5.89 14.31-8.42 19.36-12.63 31.15-21 51.35-26.1 60.61-3.36 5.89-5.89 9.26-8.41 9.26-.84 0-1.69-.84-2.53-1.69-.84-1.68-.84-10.1-.84-26.09.84-16 1.68-34.51 2.53-53.87l2.52-32.83c.84-11 1.68-20.21 2.53-29.47.84-10.94 1.68-21 2.52-29.46.84-7.58.84-11.78 0-12.63s-4.21.85-9.26 6.74c-5.89 5.89-15.15 16.83-27.78 34.51a791.71 791.71 0 0 1 -53 64c-17.68 21-30.3 32.83-36.2 36.19-10.94 7.58-23.57 9.26-36.19 6.74q-20.2-3.8-27.78-17.68a50.07 50.07 0 0 1 -5.12-22.7 41.1 41.1 0 0 1 .84-10.1c1.68-13.47 7.58-34.51 17.68-62.29 14.31-39.56 30.3-77.45 49.66-112.8s40.41-67.34 63.14-95.12c15.15-19.36 30.3-32 46.29-37.88 16-6.74 30.31-6.74 43.78.84 5.05 2.53 8.41 4.21 10.94 4.21a3.08 3.08 0 0 0 4.21-1.68q1.26-2.53 7.57-25.26c4.21-15.15 7.58-32 11.79-51.35 2.52-10.1 4.21-20.2 6.73-30.3s4.21-19.36 5.9-28.62c2.52-16 5.89-30.31 10.1-41.25a364.4 364.4 0 0 1 16-42.09c9.26-21.88 16-35.35 18.52-41.25 3.37-5.89 6.74-8.41 10.1-8.41h1.75a6.42 6.42 0 0 1 4.17 1.64zm-249.17 431.83-12.63 27.78c-7.58 16.84-13.47 32-17.68 44.62-2.52 7.57-4.21 12.62-4.21 15.15 0 .84 0 1.68.85 1.68h1.67c.84-.84 2.52-3.36 5.05-9.26s5.89-11.78 9.26-19.36c10.1-23.57 21.89-48 34.51-72.39 13.47-25.25 25.26-45.46 35.36-59.77 5.05-8.41 9.26-15.15 13.47-21s5.89-9.26 5.89-10.1v-.84l-.84-.85h-.84c-3.37.85-11 9.26-22.73 26.1-12.63 16-23.57 33.67-34.52 53q-6.29 11.36-12.61 25.24zm102.7-99.33c-2.53 5.9-10.95 17.68-24.42 37-5.05 6.74-10.94 15.15-16.83 24.41s-10.95 18.52-16.84 27.78a519.67 519.67 0 0 0 -27.78 50.51c-7.57 16-11.78 25.25-11.78 29.46 0 2.53.84 4.21 1.68 4.21.84.84 2.53 0 3.37-.84 3.37-2.53 9.26-10.1 18.52-21.89 5-5.89 11.78-15.15 21-27.78 8.42-12.62 16-23.57 23.57-34.51l22.81-32.79c7.58-10.94 12.63-18.52 16-22.73 5.9-7.57 9.26-13.46 10.11-16 .84-1.68.84-4.21.84-6.73a56 56 0 0 0 -.84-10.95c-1.69-11.78-3.37-20.2-4.21-24.41-1.69-4.21-3.37-6.73-5.9-6.73-.84 0-2.52.84-3.36 3.36s-.84 5.9-.84 10.11a38.42 38.42 0 0 1 -5.09 18.52zm89.22-99.33q-13.89 51.78-27.78 111.12c-5.89 26.09-10.94 51.35-16 74.92-4.21 22.73-7.58 40.4-8.42 53a99.5 99.5 0 0 0 -.84 13.47v.84h.84c0-.84.84-2.53 2.53-5.89.84-2.53 4.21-11.79 8.42-28.62s8.41-36.2 13.46-57.24c4.21-21.05 10.11-46.3 16.84-74.08 5.89-28.62 11.79-52.19 16.84-70.71 7.57-32 11.78-52.19 13.46-60.61.85-5.05 1.69-8.42 1.69-10.1v-1.68h-.84c-.85 0-.85 0-.85.84-3.34 1.71-10.08 20.28-19.34 54.74z"/><path d="m2988.65 863.24c0 5.9-1.68 15.16-5.89 29.47-4.21 16-11.79 33.67-21.05 53a287.71 287.71 0 0 1 -29.46 48.82c-21.89 29.46-44.62 53-69 69a205.15 205.15 0 0 1 -77.44 33.67c-5.05.84-9.26 5-11.79 11.78-3.36 6.74-7.57 19.36-11.78 37.88-3.37 13.47-5.89 26.1-6.73 38.72s.84 19.37 3.36 21a2.57 2.57 0 0 0 3.37 0 7.26 7.26 0 0 0 5.05-2.53 43.88 43.88 0 0 1 9.26-5.89c5.05-2.52 10.1-5.89 15.15-8.42q16.42-7.57 32.83-22.72c10.94-9.26 24.41-24.42 42.09-43.78 8.42-9.26 16-16.83 21.89-22.73a72.76 72.76 0 0 1 19.36-13.46 95.81 95.81 0 0 0 17.68-10.1q8.83-6.32 15.15-10.11c4.21-3.36 8.41-5.89 10.94-6.73s4.21-.84 5 0c1.68 2.53 0 11.79-5 28.62a220.58 220.58 0 0 1 -16 42.09 146.43 146.43 0 0 1 -15.16 24.41c-6.73 8.42-16.83 19.36-29.46 33.67-19.36 21-37 36.2-52.19 45.46-14.31 10.1-32 17.68-51.35 21.89-13.47 4.2-22.72 5.89-26.93 5.89a86.26 86.26 0 0 1 -21.05-3.37 76.79 76.79 0 0 1 -22.73-12.63c-7.57-5.89-13.46-12.62-16.83-19.36-4.21-8.42-6.74-19.36-6.74-33.67a55 55 0 0 1 .85-11.78c.84-19.36 5.89-42.09 13.46-68.19a284.5 284.5 0 0 1 17.68-45.45 424.48 424.48 0 0 1 28.62-50.51c4.21-6.74 10.95-16 18.52-28.62s15.15-24.41 21.89-34.51a381.08 381.08 0 0 1 55.55-70.71c21.05-21.89 41.25-37.88 59.77-47.14a181.27 181.27 0 0 1 23.57-10.11 51 51 0 0 1 18.52-3.36h.84a31.09 31.09 0 0 1 17.68 5q7.57 5.05 12.63 15.15c4.22 7.74 5.87 14.47 5.87 20.36zm-216.34 165.83c.84 0 3.37-1.68 5.89-4.2 5.05-4.21 10.1-10.95 15.16-18.52 3.36-5.05 8.41-11.79 15.15-21.05 5.89-9.26 12.62-17.68 18.52-25.25 10.94-14.31 17.67-24.41 20.2-29.46.84-1.69 1.68-3.37 1.68-4.21 0-1.69-.84-2.53-3.36-2.53-1.69 0-5.9 4.21-12.63 11.79-6.74 8.41-14.31 17.67-21.89 28.62-10.1 13.47-19.36 26.93-27.78 39.56s-12.62 21-12.62 23.57a1.81 1.81 0 0 0 1.68 1.68zm156.57-159.93c-5.05 5.89-10.94 11.78-16.83 18.51-5.9 5.9-12.63 14.31-19.36 23.57-7.58 9.26-12.63 17.68-16.84 24.42-4.21 7.57-10.1 16.83-16.84 28.62-7.57 11.78-13.46 21.88-19.36 31.14s-10.1 17.68-14.31 25.26-5.89 10.94-5.89 11.78c0 2.53.84 3.37 2.53 3.37a3.09 3.09 0 0 0 2.52-.84c4.21-.85 9.26-4.21 15.15-8.42 8.42-7.58 19.36-17.68 32.83-32s22.73-25.25 28.62-33.67c11-15.15 21.05-32.83 32-53s16.84-33.67 18.52-41.25v-10.96c-.84-2.53-1.68-3.37-4.21-4.21h-.84c-.84.84-1.68.84-2.53 1.68a10.15 10.15 0 0 0 -4.2 4.21c-1.7 1.65-5.07 5.89-10.96 11.79z"/><path d="m3260.55 806.84c2.52 2.53 4.21 3.37 5.89 3.37a14.86 14.86 0 0 1 5 .84 12.89 12.89 0 0 1 5.05 3.37c2.53 2.52 4.21 7.58 4.21 14.31a92.33 92.33 0 0 1 -3.37 23.57c-5.05 20.2-16 52.19-33.67 96-12.63 31.15-25.25 59.77-37.88 86.71s-21 43.77-26.09 51.34q-6.31 8.85-22.73 20.21c-10.94 7.57-18.52 11.78-21.89 12.62-4.21 0-6.73-3.36-9.26-9.26-1.68-5.89-2.52-14.31-1.68-26.93.84-10.94 1.68-20.2 4.21-27.78s10.1-24.41 21.88-49.67a304.67 304.67 0 0 0 17.78-39.6c4.21-11.78 6.74-18.52 6.74-19.36-.85-4.21-5.9 0-14.31 10.94a308.75 308.75 0 0 0 -27.78 38.72l-17.68 30.31a157.91 157.91 0 0 0 -11.79 25.25c-.84 4.21-3.36 10.1-6.73 18.52-2.52 8.42-5.89 16.84-8.42 24.41-5.89 16-11.78 37.88-17.68 66.5-6.73 29.47-11.78 54.72-14.31 77.45s-6.73 38.72-11.78 48c-3.37 5.89-6.73 8.42-10.94 8.42a13.62 13.62 0 0 1 -7.58-2.53 25.4 25.4 0 0 0 -8.42-3.37 31.92 31.92 0 0 0 -12.62 0 96.35 96.35 0 0 0 -14.31.85c-.85-3.37-3.37-8.42-5.9-15.15-4.21-9.26-5.89-25.26-5.89-46.3a422.22 422.22 0 0 1 3.37-52.19c4.21-48.83 13.47-101.86 26.93-159.1 5.06-21.89 10.11-39.56 15.16-53.87a148 148 0 0 1 16.83-32.83c5.9-7.58 9.26-9.26 11.79-5.9 1.68 4.21 2.52 15.16 3.36 34.52a164.47 164.47 0 0 0 1.69 24.41c.84 5.89 1.68 8.42 2.52 9.26 2.53.84 5.9-2.53 8.42-8.42s10.1-19.36 23.57-38.72c7.58-11 16.84-23.57 29.46-38.72 11.79-15.16 26.94-32.83 44.62-53q25.24-29 37.88-40.4c7.57-7.58 15.15-13.47 21-16.84 4.21-1.68 8.42-3.36 11.79-5q6.32-2.52 7.57-2.52c.85 0 1.69.84 4.21 3.36a46.14 46.14 0 0 1 5 6.74c2.57 3.25 4.23 5.78 6.78 7.46zm-144 159.1c-9.26 12.63-18.52 26.1-28.62 41.25a391 391 0 0 0 -26.94 50.5c-5.89 14.32-11.78 27.78-16 40.41-3.37 10.1-7.57 29.46-13.47 57.24-4.21 17.68-5.89 29.46-5.89 35.36 0 2.52.84 4.2 1.68 4.2h.85c4.2.85 7.57-10.1 11.78-32.82s8.42-41.25 12.63-54.72c3.36-10.94 9.26-26.1 16.83-43.77s14.31-31.15 18.52-38.72c9.26-16 19.36-32 31.15-49.67s21-28.62 26.94-34.51c2.52-2.53 5-5.9 8.41-10.1 2.53-4.21 3.37-6.74 4.21-7.58 0-.84 0-.84-.84-.84s-3.37 1.68-7.58 5.05a35.94 35.94 0 0 0 -10.1 9.26c-6.67 6.73-14.25 16.83-23.51 29.46zm107.75-51.35c-5 12.63-9.26 23.57-13.47 32-4.21 10.94-10.1 23.57-16 38.72-5.89 14.31-9.26 22.73-9.26 25.25v.85c.84.84.84 1.68 1.68 1.68s2.53-.84 3.37-3.37a170.52 170.52 0 0 0 10.94-21.88c4.21-8.42 8.42-18.52 13.47-31.15 5-11.78 10.1-23.57 14.31-36.2a460.36 460.36 0 0 0 17.68-50.5 126.19 126.19 0 0 0 4.21-17.68c0-2.53-.84-4.21-2.53-4.21s-3.36 4.21-5.89 12.63-5 16.83-7.58 24.41a169.45 169.45 0 0 1 -10.88 29.45z"/><path d="m3298.43 1275.72a24.65 24.65 0 0 1 -1.68-7.58c0-9.26 3.36-19.36 10.94-30.3 4.21-6.74 7.58-11.79 10.1-14.31a16.75 16.75 0 0 1 10.1-6.74c2.53-.84 5.9-1.68 8.42-4.21 2.53-1.68 4.21-4.21 5.89-6.73 2.53-5.89 5.05-8.42 6.74-8.42 2.52 0 4.21 2.53 5 8.42.84 2.52 1.68 5.05 3.37 9.26s3.36 7.57 4.2 10.94a42.13 42.13 0 0 1 4.21 10.94c.84 4.21 1.69 6.74 1.69 8.42 0 4.21-1.69 11.79-4.21 21.89s-5.05 16.83-7.58 20.2-6.73 5.89-13.47 8.42c-5 .84-9.26 1.68-12.62 1.68-2.53 0-4.21 0-5.9-.84-14.26-4.21-22.63-10.94-25.2-21.04zm350.18-615.35v6.74c0 13.47-2.52 28.62-8.42 46.3q-7.58 24-27.77 60.6c-12.63 24.42-25.26 45.46-37.88 62.3-10.95 15.15-21.89 31.14-32.83 47.14s-21.89 32.83-32.83 48.82c-21.05 31.15-39.57 59.77-56.4 86.7q-25.26 41.67-37.88 65.66c-5.9 10.94-10.95 19.36-16.84 26.94-5.05 7.57-11.78 15.15-19.36 22.73-5.89 5.89-11.79 10.1-16 14.31-5 4.21-8.42 5.89-9.26 5.89a4.49 4.49 0 0 1 -3.37-2.53 24.59 24.59 0 0 1 -1.68-7.57c-.85-2.53-.85-7.58-1.69-15.15v-21.89c.84-11.79 1.69-20.2 3.37-26.1.84-5.89 4.21-14.31 9.26-25.25 4.21-7.57 10.1-18.52 17.68-31.14s16-26.94 25.25-42.94c17.68-28.62 37.88-58.92 59.77-90.91 21.88-31.14 40.4-57.24 55.55-76.6 16-21 29.47-39.56 40.41-57.24s19.36-33.67 25.25-48c9.26-24.41 14.31-39.57 14.31-46.3q0-8.83-12.62-10.1t-35.36 10.1c-14.31 7.58-31.14 18.52-49.66 32.83a251.55 251.55 0 0 0 -26.94 22.73 371.74 371.74 0 0 0 -31.14 34.56c-7.57 8.42-15.15 18.52-24.41 30.3s-20.2 26.1-32.83 42.09c-10.1 12.63-18.52 22.73-26.09 31.15-7.58 9.26-10.95 13.47-11.79 13.47s-1.68-.84-2.52-1.69c-1.69-.84-3.37-1.68-4.21-3.36-.84-.85-1.69-3.37-1.69-7.58 0-7.58 2.53-18.52 8.42-34.51a316.46 316.46 0 0 1 30.31-66.5c13.46-21.89 26.93-40.41 41.24-56.4a325.17 325.17 0 0 1 49.67-45.46q35.35-26.52 63.13-40.4c19.36-9.26 36.2-13.47 51.35-14.31h1.68a59.86 59.86 0 0 1 26.94 5.89 75.42 75.42 0 0 1 22.73 17.68c9.26 9.22 14.31 21.85 15.15 37zm-70.71 100.18c-4.21 8.41-9.26 16.83-13.47 26.09-9.26 17.68-21 36.2-34.51 56.4-13.47 21-32 48-56.4 81.65-13.47 19.36-26.09 37.88-37 56.4-10.94 17.68-16.83 30.31-19.36 37v.84h.84c.84 0 2.53-1.68 5.05-5.05 4.21-5 9.26-12.62 15.16-21.88s15.15-21.89 26.09-37.88 21.89-29.47 31.15-42.09c21-29.47 37.88-53 49.66-71.55s23.57-39.57 35.36-62.3q8.84-18.93 12.62-27.78 2.53-7.58 2.53-10.1c0-.84 0-.84-.84-1.68h-.84c0-.84 0-.84-.85-.84s-1.68.84-2.52 1.68a13 13 0 0 0 -3.37 5 139.94 139.94 0 0 0 -9.3 16.09zm-112.8-74.08c-14.31 14.31-22.72 23.57-26.09 29.46a14.61 14.61 0 0 0 -2.53 5.89v.85a3.08 3.08 0 0 0 2.53-.85c4.21-2.52 16-11.78 37-29.46q17.67-15.15 25.25-22.73c4.21-4.21 5.89-7.57 5.89-8.41v-.85l-1.68-1.68h-2.47c-.84 0-2.52 0-3.36.84s-2.53.84-4.21 1.69q-8.87 5.04-30.33 25.25z"/></svg>